<?xml version="1.0" encoding="utf-8"?>
<!-- Generator: Adobe Illustrator 19.1.0, SVG Export Plug-In . SVG Version: 6.00 Build 0)  -->
<svg version="1.1" xmlns="http://www.w3.org/2000/svg" xmlns:xlink="http://www.w3.org/1999/xlink" x="0px" y="0px"
	 viewBox="0 0 800 600" style="enable-background:new 0 0 800 600;" xml:space="preserve">
<style type="text/css">
	.st0{clip-path:url(#SVGID_2_);fill:#0038A8;}
	.st1{clip-path:url(#SVGID_2_);fill:#CE1126;}
	.st2{clip-path:url(#SVGID_2_);fill:#FFFFFF;}
	.st3{clip-path:url(#SVGID_2_);}
	.st4{fill:#FCD116;}
	.st5{font-family:'Roboto-Regular';}
	.st6{font-size:14px;}
</style>
<g id="Philippines">
	<g>
		<defs>
			<path id="SVGID_1_" d="M374.889,60.446l5.648,2.008l12.501,7.236l4.574,1.794l4.757,1.341l3.766,0.397l3.358-1.654l1.421-1.692
				l2.575-4.446l2.752-0.544l1.638,1.618l1.266,2.169l0.563,3.19l-0.783,3.326l-2.622,2.981l-1.602,3.587l-1.053,11.873l0.051,3.549
				l0.844,3.417l2.276,5.42l1.19,1.523l3.445,1.938l0.93,1.465l0.198,2.63l0.541,2.315l2.229,0.884l1.894,1.163l-0.707,2.567
				l-1.183,2.609l-1.558,6.422l-7.383,14.843l-0.433,3.202l-2.918,6.374l-5.926,1.028l-6.871,3.075l-3.823,2.395l-3.318,3.111
				l-1.27,4.064l1.089,1.859l0.693,1.983l-0.079,2.143l-1.028,1.777l-3.3,4.331l-1.396,3.537l-1.482,1.584l-0.725,1.927l0.245,2.2
				l1.331,1.913l4.025,8.255l4.307,7.963l0.927,0.914l0.361,1.068l-2.543,2.108l0.05,3.816l0.761,3.779l3.816,9.37l0.545,2.503
				l1.251,2.051l1.951,1.921l2.157,1.615l6.2,2.772l2.391,0.545l2.489,0.096l0.617-1.865l2.182-0.632l-0.483-1.836l-2.655-2.533
				l-0.105-1.377l1.396-1.022l1.666-0.597l3.733-2.766l3.957-2.215l5.035,0.183l4.945,1.237l3.509,1.291l2.885,2.374l2.968,4.097
				l2.085,4.535l-0.011,2.164l-0.509,2.165l0.112,2.143l1.551,1.456l4.783,0.109l2.42-3.366l0.31-3.786l-1.702-1.47l0.783-1.867
				l1.472-1.395l2.11,1.249l2.027,2.36l7.405,2.563l1.894,0.055l1.547,0.48l3.315,1.785l1.547,1.417l-1.897,2.943l-7.354,0.653
				l-2.124,2.217l2.16,4.443l3.528,3.641l2.261,2.945l2.009,3.169l-0.097,2.936l-1.161,3.055l3.235-0.243l3.044,0.651l4.209,2.553
				l1.309,0.261l1.41-0.406l-0.202,9.211l-2.864,8.429l-3.621-1.048l-3.098-3.563l0.631-4.338l1.98-4.194l-1.129-0.886l-1.998,0.349
				l-2.272,0.945l-2.449,0.325l-4.036-0.559l-8.289-4.57l-3.376-0.414l-0.757-2.07l0.188-4.393l-3.307-5.202l-0.53-1.862
				l-1.046-1.466l-9.865-5.669l-1.208-0.955l-3.033-4.526l-6.875-6.446l-1.926-0.659l-2.095-0.186l-0.678,1.636l0.952,2.514
				l0.386,2.159l-0.148,2.264l0.289,1.75l3.257,3.581l0.487,1.694l2.161,4.595l0.267,5.363l-2.777,2.225l-3.127-2.483l-0.101-2.022
				l-0.537-1.882l-3.362-4.877l-1.122-1.051l-6.327-4.819l-4.895-5.294l-10.889-5.643l-1.295-0.31l-1.89,0.426l-1.782,0.703
				l-5.259,2.789l-1.858,1.943l-0.166,2.981l-3.773,2.37l-5.194,0.334l-3.989-1.481l-3.3-2.97l-2.727-0.142l-3.383-4.643
				l-4.123-0.598l-3.398,3.631l-0.729-7.215l-0.022-7.293l0.956-2.132l1.684-1.775l8.635-7.65l1.089-2.458l-0.379-3.304
				l-1.966-2.683l-3.087-1.632l-3.567-0.676l-2.572-1.501l-2.016-2.471l-1.363,4.371l1.327,6.506l0.22,4.229l-1.219,1.582
				l-2.215,0.044l-2.103-0.5l-1.576-1.514l-1.14-4.36l-3.004-2.886l-1.223-4.134l-1.363-0.588l-2.803,0.319l-2.063-1.924
				l-1.389-4.826l-0.292-5.185l-1.169-4.362l-1.684-4.223l-0.981-3.452l-1.522-15.505l-0.375-1.423l-0.804-1.174l-1.901-1.763
				l-1.45-2.157l-0.263-1.777l0.397-7.649l0.653-1.843l1.497-0.889l2.045,1.498l1.634,1.86l2.023,0.892l1.782,1.18l3.347,4.522
				l1.32,0.709l4.119-0.144l2.427-0.574l1.172-1.647l0.739-1.963l0.018-2.32l-2.373-6.835l-0.729-4.934l-0.032-4.451l0.62-4.461
				l3.239-7.431l0.415-5.162l-0.31-6.91l0.57-4.114l-0.097-2.363l-1.937-3.725l-0.505-3.969l5.417-20.233l1.695-3.919l1.237-4.048
				l0.563-5.383l4.051-1.475l3.856-2.226l1.995,0.174l2.114,0.535l4.667-1.106L374.889,60.446z M234.893,445.125l-3.419,2.682
				l0.368-3.316l1.01-3.127l3.473-6.406l2.507-1.97l4.144-5.048l2.337-2.441l5.601-4.828l5.165-5.294l1.728-0.394l1.901-0.08
				l1.508-0.608l3.361-2.859l8.462-9.527l6.997-7.105l7.17-8.991l3.419-2.621l0.923-0.968l6.6-8.288l2.07-1.204l2.334-0.874
				l1.587-1.126l1.396-1.412l2.334-3.61l0.949-4.222l-0.591-2.385l-1.313-3.519l1.645-4.801l1.295-2.216l4.602-9.758l1.327-1.97
				l1.922,1.232l0.256,1.749l-0.949,4.114l-0.072,2.065l1.082,2.098l-1.302,3.452l3.304,9.183l2.521,5.812l0.094,1.917l-3.387,3.467
				l-2.02,1.048l-4.361,0.931l-1.962,1.011l-3.124,2.819l-1.951,3.712l-0.494,1.918l-0.999,1.476l-8.97,2.52l-4.209,1.645
				l-1.94,1.237l-1.003,2.011l0.696,3.549l-7.542,12.803l-2.406,3.35l-2.568,2.85l-3.152,2.027l-4.444,1.245l-3.517,2.475
				l-2.388,4.378l-2.95,3.954l-3.729,2.928l-4.018,2.585l-3.69,1.885l-3.978,1.33l-1.201,1.721l-0.851,2.125l-1.753,1l-2.092,0.576
				L234.893,445.125z M426.398,326.778l4.303,1.908l4.195-1.639l4.13,0.459l3.441,2.486l-1.125,1.571l-0.231,1.724l7.69-3.75
				l2.052,0.221l-0.069,3.483l-0.454,2.956l-0.909,2.873l-1.627,3.365l-2.178,3.006l-2.871,2.182l-3.401,1.335l-1.616,1.212
				l-0.498,1.825l0.061,2.297l-0.783,2.089l-3.574,0.855l-5.58,4.072l-11.982,2.576l-3.289,1.768l-2.099,2.294l-2.341,2.081
				l-1.27,0.519l-0.581-0.989l-0.166-0.849l1.71-5.41l-0.285-2.252l-0.815-2.185l0.519-4.27l2.081-4.015l1.115-4.422l0.325-8.542
				l1.619-11.879l-0.079-1.422l-1.27-1.607l-4.66-1.296l-1.832-1.221l0.916-2.38l1.76-1.613l2.42,0.073l2.128,1.512l7.531,3.114
				l4.007,2.617L426.398,326.778z M449.84,421.94l-2.445,0.399l-2.583-0.203l-1.731-1.825l-3.001-7.876l-3.477-1.916l-3.986-1.451
				l-2.002-1.222l-1.767-1.473l-5.598-7.855l-0.422-4.809l0.963-2.721l1.695-2.437l1.912-0.659l4.617-0.087l2.391-0.32l5.266-3.606
				l0.379-1.419l0.025-5.93l-0.523-4.149l-1.306-4.05l1.425-1.852l1.857-1.834l1.94-3.577l0.382-2.517l0.036-2.632l0.501-1.885
				l1.518-0.941l7.29-2.873l1.288-0.197l9.381,2.65l1.915,3.997l0.188,1.319l-1.472,4.435l-1.288,2.975l-3.174,4.603l-2.341,4.984
				l-1.753,7.49l-1.104,2.44l-2.94,4.685l-0.909,2.572l0.025,5.571l-0.49,2.059l0.014,1.979l5.857,9.27l0.498,1.469l-0.051,1.656
				l-1.003,2.069l-2.388,3.564l-1.338,1.245L449.84,421.94z M503.163,336.964l2.575,1.309l2.954-0.523l3.574-2.97l4.022,1.069
				l2.362,4.376l1.205,1.653l0.656,2.86l-0.169,6.855l-0.981,6.211l0.761,1.279l1.85,1.116l1.612,1.377l1.352,1.765l0.869,1.963
				l0.35,4.764l2.323,4.015l0.31,1.563l-0.559,1.637l-3.874-0.32l-0.31,1.382l0.094,1.711l-1.374-1.076l-2.269-3.92l-2.085-1.647
				l0.642,6.359l0.689,3.049l0.112,3.063l-3.6-2.34l-4.296-1.443l-1.183-1.247l0.404-3.971l-0.079-1.976l-1.915-4.186l2.251-9.051
				l-0.054-1.851l-0.386-1.853l-1.775-3.674l-2.806-3.073l-1.72-0.009l-4.184,2.159l-2.117-0.715l-1.248-8.478l-1.688-8.245
				l-1.295-2.111l-0.84-2.212l0.83-1.836l1.605,0.757l2.283,2.163l2.77,1.249l1.378,1.08L503.163,336.964z M527.722,292.523
				l2.615,3.067l0.635,2.22l-0.271,2.456l1.183,1.091l2.088,0.297l2.676,1.236l2.009,2.274l-1.194,2.088l0.372,3.048l-2.099,3.829
				l0.285,6.785l1.205,2.167l0.115,2.187l-0.303,2.288l0.516,1.877l3.221,6.216l0.591,2.065l-0.985,1.63l-0.325,1.544l1.987,0.163
				l2.831,2.585l1.666,3.411l-0.498,0.896l-2.261-2.662l-1.71-0.42l-7.25,0.727l-4.444-1.11l-2.885-0.104l-2.864-4.563l-2.51-0.76
				l-1.98-2.017l-3.286-5.162l-1.046-2.968l2.287-3l0.714-2.393l-0.119-2.346l-2.193,0.386l-1.897-0.781l-2.334-2.872l-0.934-1.659
				l-1.699-1.388l-2.698-3.284l-3.874-1.284l-1.58-0.903l-3.08-2.762l-2.247-3.425l-2.182-6.003l-1.147-6.222l10.013,1.621
				l10.132-0.314l11.452-1.428L527.722,292.523z M360.22,256.68l1.883,0.321l5.908-1.135l2.417,0.569l1.623,2.161l2.016,0.678
				l1.594,1.113l2.965-1.927l3.015,2.196l2.676,4.097l3.152,2.905l2.976,2.157l0.588,1.595l-1.807,2.61l-0.552,3.314l0.18,3.557
				l2.251,7.484l-0.79,2.029l-2.262,2.867l-1.688,3.191l0.216,1.288l-0.667,1.053l-0.213,2.26l-1.385-0.47l-1.273,0.356l-1.237,1.01
				l-1.926,2.175l-3.001-0.658l-1.421-0.642l-0.346-1.885l-0.895-1.328l-1.288-0.789l-3.178-3.253l-1.49-2.446l-0.025-2.612
				l-0.815-2.435l-1.648-2.175l-2.171-1.668l-0.725-1.602l-0.281-1.895l-0.188-4.853l-3.08-6.057l-1.068-1.452l-2.889-1.498
				l-2.395-1.929l-1.021-1.922l-0.93-3.111l-0.642-0.449l-1.868,0.142l-1.811-0.403l0.527-2.286l1.793-1.664l2.478-0.203
				l6.831,0.936L360.22,256.68z M556.029,412.393l3.015,2.238l3.906-0.594l-0.051,5.643l0.631,1.648l3.527,4.775l0.552,3.986
				l-2.088,3.742l-1.58,1.769l-2.904,2.561l-0.076,1.174l1.237,1.321l4.036,0.77l3.066,2.056l0.534,5.828l2.914,4.595l-0.076,2.004
				l-1.158,8.202l0.372,3.505l2.182,2.808l1.847,1.191l0.949,1.761l0.858,4.83l-0.151,8.201l-0.285,2.863l-1.288,2.66l-3.975,6.044
				l-5.356,4.806l-2.849-0.321l-0.916,1.422l1.778,4.384l-0.703,9.252l-1.176,6.414l-1.731-3.245l-1.208-3.4l-1.096-9.001
				l-1.367-4.057l-2.146-3.71l-0.862-3.314l-2.233-3.098l-2.835-8l-1.876,0.412l-3.116,2.187l-0.703,1.506l-0.368,2.283
				l-0.721,2.053l-3.639,3.271l-2.86,3.898l-2.355,4.264l-0.75,3.909l1.93,3.059l1.984,1.233l2.878,2.737l0.884,1.25l3.037,8.888
				l-0.101,9.089l-2.222,4.002l-5.612,7.593l-4.04,2.407l-2.164-1.228l-1.731-4.596l-0.289-1.894l1.172-4.326l0.13-3.968
				l-1.363-1.342l-1.497,0.259l-0.628,0.573l-3.614,5.191l-1.508,1.313l-2.222,0.182l-1.767-0.355l-10.748-4.532l-8.772-4.484
				l-6.871-4.19l-4.974-6.319l-1.05-4.731l-0.058-4.949l-2.225-7.258l-0.26-2.465l0.162-2.366l2.211-4.452l2.676-2.255l1.5-1.616
				l1.201-1.795l0.819-2.397l-0.231-2.379l-0.895-1.491l-4.227-5.224l-3.675-3.212l-7.524-2.887l-1.749-1.584l-1.904-1.199
				l-2.103-0.514l-2.056-0.018l-2.222,0.897l-0.577,1.91l0.155,1.707l-0.195,1.661l-3.156,9.544l-4.022-2.094l-3.834-2.418
				l-1.017-1.693l-0.44-2.026l-0.649-1.368l-0.905-1.242l-1.764,3.187l-2.193,2.52l-2.684,0.584l-2.73,0.045l-0.895-1.081
				l-0.996-6.07l-2.875-1.913l-3.61,0.407l-4.368,3.346l-0.869,1.251l-0.952,2.881l-4.761,8.174l-2.521,6.296l-2.781,6.131
				l-1.244,2.016l-1.638,1.328l-2.604-0.55l-2.341-1.464l-2.218-3.955l0.754-4.597l2.456-2.931l2.07-3.138l2.5-10.967l0.188-3.905
				l0.44-1.671l4.119-4.987l3.463-3.086l1.832-0.648l7.488-1.757l3.084-1.475l4.855-0.022l3.942-0.843l3.145-2.375l0.238-2.462
				l-0.144-2.564l0.692-1.568l1.219-1.32l1.674-1.739l1.894-1.306l5.381-0.944l1.785-1.074l1.439-1.678l2.009-3.255l2.377,0.808
				l2.391,1.265l4.299,0.997l3.816,2.705l2.431,4.266l0.418,2.101l0.624,6.943l-0.887,1.62l-3.704,3.219l1.71,0.338l4.866-2.939
				l2.427-1.133l6.002-1.575l1.414-1.041l1.039-1.551l2.121-4.25l1.551-4.543l1.208-1.891l1.735-1.5l1.713-0.241l6.298,3.105
				l4.04-1.496l1.129-4.706l0.927-6.844l0.714-1.853l2.319-1.792l2.767,0.579l3.787,2.457l3.495,0.809l1.299-1.98l1.237-3.904
				l1.41,0.022l4.718,1.292l4.548-0.853l1.28-4.688l-0.858-5.017l-3.553-14.632l2.117-3.261l1.832-0.087l4.491,3.895l8.649,5.26
				l2.882,3.217L556.029,412.393z M458.684,407.608l-1.425,0.992l-0.581-2.456l0.408-3.316l2.831-11.585l-0.646-2.899l4.732-6.456
				l2.9-6.063l4.379-6.37l0.556-3.304l3.881-6.303l3.632-8.699l-0.195-2.882l0.941-1.43l0.516-2.18l0.116-1.85l2.647-3.241
				l0.703,2.106l-0.79,4.135l0.123,1.985l0.469,0.929l0.029,3.849l-0.952,5.9l0.876,6.806l-1.71,6.923l-1.951,3.115l-2.889,2.196
				l-3.149,1.376l-3.257,3.448l-2.11,4.029l-0.346,3.669l-5.187,12.377L458.684,407.608z M405.179,49.612l-2.344,2.786l-1.219-0.769
				l1.313-2.709l-0.036-0.94l1.075-2.127l2.013-0.734l1.645,2.089L405.179,49.612z M390.377,31.456l0.382,3.526l-2.186-0.078
				l-3.293-2.145l-0.306-1.083l0.051-0.91L385.601,30L390.377,31.456z M377.024,532.568l2.013,2.661l2.536-0.692l4.025,0.744
				l0.855,1.387l-0.133,0.91l-4.307,2.577l-2.817-2.684l-4.992,1.833l-2.38-1.104l-3.246,0.987l-2.005-2.082l0.808-2.003
				l5.151-3.286L377.024,532.568z M226.352,465.742l-1.904,2.81l-2.171-3.237l0.231-4.51l0.656-1.256l3.084-0.689L226.352,465.742z
				 M331.109,368.995l-4.545,1.146l-1.06-3.595l3.235-3.305l3.625,1.32l2.15,1.294l-1.006,1.172L331.109,368.995z M337.897,306.055
				l2.02,0.574l1.443-0.55l1.273-1.982l1.194,2.931l2.986,2.414l-0.992,2.441l-2.626,0.286l-2.579-0.557l-2.716,0.971l-3.307-0.544
				l-1.977-2.288l-2.251-4.111l-1.115-0.761l0.137-1.689l0.819-1.071l-0.433-0.277l0.209-0.75l0.404-0.51l0.729-0.213l1.753,1.828
				l4.198,2.728L337.897,306.055z M335.636,323.472l-2.766,1.272l-0.7-0.8l-0.487-1.859l0.04-1.279l-2.655-6.731l2.034-1.028
				l1.497,0.791l1.526,1.055l1.407,0.559l1.284,2.126l-0.307,1.47l0.397,1.419L335.636,323.472z M432.061,369.491l-1.021,0.51
				l-0.913-0.075l-2.171,1.346l-0.801-2.522l0.768-4.294l3.261-3.265l0.837-1.027l0.891-0.609l1.06-0.067l1.032,1.278l0.296,1.935
				l-2.067,5.836L432.061,369.491z M503.874,395.043l-0.353,1.367l-2.904-0.113l-1.039,0.209l-2.738,3.492l-1.609,0.889l-8.768,1.15
				l-6.9-0.918l-2.362-1.926l-1.54-3.179l-0.473-2.095l1.724-2.288l1.663-1.521l5.573-3.002l1.259-2.278l2.918-2.754l6.016-0.921
				l0.584,0.692l0.801,0.439l1.205,0.118l2.972,2.271l3.354,1.445l-0.815,5.496l1.003,1.848L503.874,395.043z M343.452,562.766
				l-1.003,2.224l-1.169,1.029l-1.537-0.581l-1.169-1.153l-0.656,1.709l-3.225,0.658l-2.038,2.637L329.681,570l-2.07-0.344
				l0.216-2.344l5.738-3.509l3.582-1.297l3.16-2.535l1.58-0.282l0.79,2.064L343.452,562.766z M411.502,519.55l-3.747,0.508
				l-1.19-0.047l-2.929-3.757l-0.274-1.668l-2.355-1.883l0.862-1.859l3.062-0.449l5.295-2.383l8.487,3.761l1.309,1.354l-2.651,0.83
				l-1.876,3.578L411.502,519.55z M558.002,395.825l-0.465,0.202l-2.052-2.895l0.274-3.297l2.777-4.925l2.056,4.31l-0.022,1.953
				l-0.299,0.966l1.912,2.429l-1.317,1.198L558.002,395.825z M544.368,390.304l-0.653,1.042l-0.884-2.146l-2.146-2.016l-2.07-3.424
				l-1.464-1.066l1.003-2.714l0.097-4.408l2.052-2.013l0.949-0.594l1.555-2.135l0.696-0.124l0.656,1.794l-1.399,5.469l2.092,6.473
				l-0.7,4.046l0.299,0.9L544.368,390.304z M344.224,246.439l0.058,2.558l-6.229-3.756l-0.177-1.307l0.148-0.967l0.638-0.587
				l3.351,1.414L344.224,246.439z M404.927,254.384l2.28,0.111l0.707-0.354l4.39,3.155l-0.267,1.597l0.555,2.102l-2.499,3.639
				l-0.454,1.224l-1.385,1.176l-4.765-2.894l-1.724-1.768l-0.523-3.616l1.89-5.348L404.927,254.384z M411.546,299.025l-2.958,9.36
				l-1.987-3.22l0.804-2.024l-1.71-1.693l-0.458-1.537l0.656-2.033l1.789-1.875l0.447-6.136l3.776-1.959l1.522-0.075l-0.545,1.506
				l0.051,2.822L411.546,299.025z M432.245,300.747l-1.89,0.88l-3.841-3.685l-2.233-1.721l-0.588-0.961l1.807-1.386l4.866,0.013
				l2.586,2.531l0.357,1.576L432.245,300.747z M455.416,280.277l3.152,5.742l-3.434-3.923l-3.982-2.665l-4.144-4.427l-2.983-1.554
				l-0.902-0.903l0.314-1.827l2.2-0.339l0.977,0.105l6.009,7.833L455.416,280.277z M473.645,295.304l0.137,3.293l-1.389-1.213
				l-4.465-6.464l-1.233-2.361l1.266-1.565l3.221,2.411L473.645,295.304z M471.473,301.561l7.08,4.441l4.877,7.592l0.566,5.821
				l-0.375,2.217l-2.319-2.491l-4.985-3.55l-3.463-0.784l-1.064-0.641l0.4-1.916l-2.262-1.777l-0.267-0.726l-2.052-0.784
				l-2.99-3.994l-2.117-0.752l-2.027,0.841l-4.66,5.925l-4.981,4.154l-0.072-1.588l2.02-5.202l1.284-8.314l0.808-2.533l-1.01-3.729
				l-0.126-3.339l3.715,1.546l4.653,1.547l3.545,2.12l0.584,1.424L471.473,301.561z M495.001,250.914l-0.981,2.448l-1.201-0.866
				l-1.71,0.138l-2.691,2.081l-4.371-2.795l-0.671-2.174l3.134-4.811l-0.032-7.153l1.14-1.758l1.201-1.262l1.428-0.684l3.08,4.941
				l1.05,0.6l2.972,2.271l-0.772,4.571l0.285,2.669L495.001,250.914z M414.55,235.167l-0.115,1.544l-7.978-5.602l-0.364-0.963
				l-0.014-0.895l0.487-0.895L414.55,235.167z M409.309,198.913l0.667,1.336l-0.732-0.067l-0.534,0.241l-1.735,2.747l1.897,5.07
				l-1.183,3.691l-2.092,0.232l-0.826-0.396l0.426-1.823l0.458-0.838l-0.426-2.406l-1.248-1.513l-0.995-2.937l-1.551-1.762
				l0.721-2.833l4.869-0.314L409.309,198.913z M529.244,387.781l0.256,1.843l-4.754-4.852l-0.959-3.432l1.583,0.147l2.034,1.32
				L529.244,387.781z M442.684,483.299l0.404,0.865l-0.162,0.914l-3.845,1.718l-1.288-0.051l-0.299-2.863l0.945-1.299l1.811,1.153
				l1.612-1.335L442.684,483.299z M547.852,499.807l-0.577,2.106l-2.269-4.962l-0.905-1.228l1.161-4.154l2.546,2.03L547.852,499.807
				z M504.411,331.382l-4.613,0.238l-2.02-1.719l-2.528-5.027l2.846-1.091l2.716,0.296l1.995,1.777l2.117,3.377L504.411,331.382z
				 M511.733,419.022l-1.06,2.212l-4.141-1.829l-0.988-1.59l0.527-1.886l2.023-0.639l1.061-0.005l1.973,1.973L511.733,419.022z
				 M329.086,330.14l0.794,1.982l-1.035,2.971l-0.895,0.651l-1.183-1.237l-2.536-0.868l-0.162-1.6l1.324,0.038l2.413-1.565
				L329.086,330.14z M472.967,339.201l2.164,4.96l-2.914-0.027l-1.075-3.611l1.248-1.166L472.967,339.201z M513.497,327.539
				l-0.682,1.928l-1.082-0.534l-0.945-0.869l-1.382-2.914l-0.472-2.128l2.124,1.208l1.223,2.117L513.497,327.539z M236.523,453.467
				l-2.521,0.876l-0.545-2.317l0.317-2.279l1.8,0.241l0.891,0.713L236.523,453.467z M470.774,415.503l0.317,3.857l-3.39,1.123
				l-2.723-0.982l-1.746-2.318l0.004-0.871l1.536,0.073l3.358-2.033l1.064-0.39L470.774,415.503z"/>
		</defs>
		<clipPath id="SVGID_2_">
			<use xlink:href="#SVGID_1_"  style="overflow:visible;"/>
		</clipPath>
		<rect x="60" y="30" class="st0" width="1080" height="540"/>
		<rect x="60" y="300" class="st1" width="1080" height="270"/>
		<path class="st2" d="M527.653,300L60,570V30"/>
		<g class="st3">
			<circle class="st4" cx="200" cy="255" r="54"/>
			<g>
				<g>
					<g id="h">
						<path class="st4" d="M86,255l7.012,7.012L200,255l-106.988-7.013L86,255z"/>
						<path id="g" class="st4" d="M98,268.428l5.722,5.722L200,255L98,268.428z"/>
						<g transform="scale(1,-1)">
							<path id="g_1_" class="st4" d="M98,241.572l5.722-5.722L200,255L98,241.572z"/>
						</g>
					</g>
					<g id="i">
						<g id="h_1_">
							<path class="st4" d="M119.389,174.39v9.916L200,255l-70.693-80.61H119.389z"/>
							<path id="g_2_" class="st4" d="M118.379,192.37v8.093L200,255L118.379,192.37z"/>
							<g transform="rotate(45)">
								<path id="g_3_" class="st4" d="M137.37,173.38h8.093L200,255L137.37,173.38z"/>
							</g>
						</g>
					</g>
					<g>
						<g id="j">
							<g id="h_2_">
								<path class="st4" d="M200,141l-7.013,7.012L200,255l7.012-106.988L200,141z"/>
								<path id="g_4_" class="st4" d="M186.572,153l-5.722,5.722L200,255L186.572,153z"/>
								<g transform="scale(1,-1)">
									<path id="g_5_" class="st4" d="M213.429,153l5.722,5.722L200,255L213.429,153z"/>
								</g>
							</g>
							<g id="i_1_">
								<g id="h_3_">
									<path class="st4" d="M280.61,174.39h-9.916L200,255l80.61-70.693V174.39z"/>
									<path id="g_6_" class="st4" d="M262.63,173.38h-8.093L200,255L262.63,173.38z"/>
									<g transform="rotate(90)">
										<path id="g_7_" class="st4" d="M281.62,192.37v8.093L200,255L281.62,192.37z"/>
									</g>
								</g>
							</g>
						</g>
						<g>
							<g>
								<g>
									<g id="h_4_">
										<path class="st4" d="M314,255l-7.012-7.013L200,255l106.988,7.012L314,255z"/>
										<path id="g_8_" class="st4" d="M302,241.572l-5.722-5.722L200,255L302,241.572z"/>
										<g transform="scale(1,-1)">
											<path id="g_9_" class="st4" d="M302,268.428l-5.722,5.722L200,255L302,268.428z"/>
										</g>
									</g>
									<g id="i_2_">
										<g id="h_5_">
											<path class="st4" d="M280.61,335.611v-9.918L200,255l70.693,80.611H280.61z"/>
											<path id="g_10_" class="st4" d="M281.62,317.63v-8.093L200,255L281.62,317.63z"/>
											<g transform="rotate(45)">
												<path id="g_11_" class="st4" d="M262.63,336.621h-8.093L200,255L262.63,336.621z"/>
											</g>
										</g>
									</g>
									<g>
										<g id="j_1_">
											<g id="h_6_">
												<path class="st4" d="M200,369l7.012-7.013L200,255l-7.013,106.987L200,369z"/>
												<path id="g_12_" class="st4" d="M213.429,357l5.722-5.722L200,255L213.429,357z"/>
												<g transform="scale(1,-1)">
													<path id="g_13_" class="st4" d="M186.572,357l-5.722-5.722L200,255L186.572,357z"/>
												</g>
											</g>
											<g id="i_3_">
												<g id="h_7_">
													<path class="st4" d="M119.389,335.611h9.918L200,255l-80.611,70.693V335.611z"/>
													<path id="g_14_" class="st4" d="M137.37,336.621h8.093L200,255L137.37,336.621z"/>
													<g transform="rotate(180)">
														<path id="g_15_" class="st4" d="M118.379,317.63v-8.093L200,255L118.379,317.63z"/>
													</g>
												</g>
											</g>
										</g>
										<g>
											<g id="s" transform="translate(37.961524,0)">
												<path id="t" class="st4" d="M409.711,255l-20.292,7.053l-0.437,21.478l-12.978-17.119l-20.563,6.222L367.711,255
													H409.711z"/>
												<g transform="scale(1,-1)">
													<path id="t_1_" class="st4" d="M409.711,255l-20.292-7.053l-0.437-21.478l-12.978,17.119l-20.563-6.22L367.711,255
														H409.711z"/>
												</g>
											</g>
											<g transform="translate(28,45)">
												<g id="s_1_" transform="translate(37.961524,0)">
													<path id="t_2_" class="st4" d="M23.058,478.235l4.037-21.1L8.713,446.017l21.315-2.68l4.894-20.918l9.136,19.443
														L23.058,478.235z"/>
													<g transform="rotate(120)">
														<path id="t_3_" class="st4" d="M23.058,478.235l16.254-14.047l18.819,10.361l-8.336-19.799l15.669-14.698
															l-21.407,1.809L23.058,478.235z"/>
													</g>
												</g>
												<g transform="translate(-2.019238)">
													<g id="s_2_" transform="translate(37.961524,0)">
														<path id="t_4_" class="st4" d="M23.058,31.766l16.254,14.046l18.819-10.361l-8.336,19.8l15.669,14.696l-21.407-1.809
															L23.058,31.766z"/>
														<g transform="rotate(-120)">
															<path id="t_5_" class="st4" d="M23.058,31.766l4.037,21.1L8.713,63.984l21.315,2.68l4.894,20.918l9.136-19.444
																L23.058,31.766z"/>
														</g>
													</g>
												</g>
											</g>
										</g>
									</g>
								</g>
							</g>
						</g>
					</g>
				</g>
			</g>
		</g>
		<use xlink:href="#SVGID_1_"  style="overflow:visible;fill:none;stroke:#000000;stroke-width:0.5;stroke-miterlimit:10;"/>
	</g>
</g>
<g id="Copyright">
	<text transform="matrix(1 0 0 1 681.6426 577.5916)" class="st5 st6">© Vemaps.com</text>
</g>
</svg>
